<svg width="40" height="40" viewBox="0 0 40 40" fill="none" xmlns="http://www.w3.org/2000/svg">
<rect width="40" height="40" fill="white"/>
<path d="M23.4648 23.0859C24.5276 22.7348 25.3404 22.5611 26.0791 22.8154C28.3405 23.5943 30.4138 24.8042 32.1484 26.3857C35.1613 29.1328 36.9213 32.7855 37.125 36.6191H2.875C3.07867 32.7855 4.83869 29.1328 7.85156 26.3857C9.58616 24.8042 11.6595 23.5943 13.9209 22.8154C14.6597 22.561 15.4731 22.7347 16.5361 23.0859C17.5175 23.4102 18.7544 23.9091 20 23.9092C21.2457 23.9092 22.4834 23.4102 23.4648 23.0859Z" stroke="black" stroke-width="1.5"/>
<path d="M20 3.9082C25.3993 3.90823 29.7764 8.28528 29.7764 13.6846C29.7763 19.0838 25.3993 23.4609 20 23.4609C14.6007 23.4609 10.2237 19.0839 10.2236 13.6846C10.2236 8.28526 14.6007 3.9082 20 3.9082Z" stroke="black" stroke-width="1.5"/>
</svg>
