<svg width="38" height="38" viewBox="0 0 38 38" fill="none" xmlns="http://www.w3.org/2000/svg">
<rect width="38" height="38" fill="white"/>
<path d="M22.2246 21.7295C23.2329 21.3963 24.0687 21.2054 24.8447 21.4727C27.0191 22.2216 29.0134 23.3865 30.6836 24.9092C33.6434 27.6078 35.3505 31.2181 35.4893 35H2.51074C2.64949 31.2181 4.35663 27.6078 7.31641 24.9092C8.98656 23.3865 10.9809 22.2216 13.1553 21.4727C13.9313 21.2054 14.7671 21.3963 15.7754 21.7295C16.7295 22.0447 17.8605 22.501 19 22.501C20.1395 22.501 21.2705 22.0447 22.2246 21.7295Z" stroke="black"/>
<path d="M19 3.5C24.2467 3.5 28.5 7.75329 28.5 13C28.5 18.2467 24.2467 22.5 19 22.5C13.7533 22.5 9.5 18.2467 9.5 13C9.5 7.75329 13.7533 3.5 19 3.5Z" stroke="black"/>
<ellipse cx="9" cy="13.5" rx="2" ry="3.5" fill="#F813BB"/>
<ellipse cx="29" cy="13.5" rx="2" ry="3.5" fill="#F813BB"/>
<path d="M9 11C9.16667 8.66667 11.4 2 19 2C26.6 2 29.1667 9.16667 29.5 11.5" stroke="#F60DC4"/>
<path d="M28.5 16C25.3 19.2 21.5 20.3333 20 20.5" stroke="#747474"/>
<circle cx="20" cy="20" r="1" fill="#373737"/>
</svg>
