<svg width="45" height="45" viewBox="0 0 45 45" fill="none" xmlns="http://www.w3.org/2000/svg">
<circle cx="22.5" cy="22.5" r="22.5" transform="rotate(-180 22.5 22.5)" fill="white"/>
<path d="M13.5858 21.5858C12.8047 22.3668 12.8047 23.6332 13.5858 24.4142L26.3137 37.1421C27.0948 37.9232 28.3611 37.9232 29.1421 37.1421C29.9232 36.3611 29.9232 35.0948 29.1421 34.3137L17.8284 23L29.1421 11.6863C29.9232 10.9052 29.9232 9.63891 29.1421 8.85787C28.3611 8.07682 27.0948 8.07682 26.3137 8.85787L13.5858 21.5858ZM16 23L16 21L15 21L15 23L15 25L16 25L16 23Z" fill="#1E1E1E"/>
</svg>
