<svg width="95" height="95" viewBox="0 0 95 95" fill="none" xmlns="http://www.w3.org/2000/svg">
<path d="M95 95H0V0H95V95ZM30.874 13C21.0181 13 12.9492 21.2368 12.9492 31.3047V62.6953C12.9492 72.7632 21.0109 81 30.874 81H63.0244C72.8803 81 80.9492 72.7632 80.9492 62.6953V31.3047C80.9492 21.2368 72.8876 13 63.0244 13H30.874ZM62.4531 19.0869C69.277 19.0869 74.8633 24.7907 74.8633 31.7607V62.2471C74.863 69.2169 69.2768 74.9199 62.4531 74.9199H31.4453C24.6216 74.9199 19.0354 69.2169 19.0352 62.2471V31.7607C19.0352 24.7907 24.6214 19.0869 31.4453 19.0869H62.4531ZM46.9453 29.5469C37.5019 29.5469 29.8525 37.3636 29.8525 47.0117C29.8525 56.6598 37.5091 64.4766 46.9453 64.4766C56.3815 64.4765 64.0371 56.6598 64.0371 47.0117C64.0371 37.3636 56.3815 29.5469 46.9453 29.5469ZM46.9453 35.7422C53.0383 35.7422 57.9736 40.7876 57.9736 47.0049C57.9734 53.222 53.0382 58.2662 46.9453 58.2734C40.8523 58.2734 35.917 53.2291 35.917 47.0117C35.917 40.7871 40.8523 35.7494 46.9453 35.7422ZM64.9648 24.6602C62.8348 24.6603 61.1084 26.427 61.1084 28.6055C61.1085 30.7838 62.8349 32.5496 64.9648 32.5498C67.0949 32.5498 68.8221 30.7839 68.8223 28.6055C68.8223 26.4269 67.095 24.6602 64.9648 24.6602Z" fill="white"/>
</svg>
