<svg width="95" height="95" viewBox="0 0 95 95" fill="none" xmlns="http://www.w3.org/2000/svg">
<path d="M95 0V95H0V0H95ZM15 16.5195C9.47715 16.5195 5 20.9967 5 26.5195V66.5195C5 72.0424 9.47715 76.5195 15 76.5195H80C85.5228 76.5195 90 72.0424 90 66.5195V26.5195C90 20.9967 85.5228 16.5195 80 16.5195H15Z" fill="white"/>
<path d="M65.2864 48.0242C55.3965 42.7398 45.9283 37.8824 36.252 32.8115V63.1548C46.4376 57.6184 57.1708 52.5475 65.3302 48.0242H65.2864Z" fill="white"/>
<path d="M65.2864 48.0242C55.3965 42.7398 36.252 32.8115 36.252 32.8115L61.7762 49.9683C61.7762 49.9683 57.127 52.5475 65.2864 48.0242Z" fill="#E8E0E0"/>
</svg>
