<svg width="95" height="95" viewBox="0 0 95 95" fill="none" xmlns="http://www.w3.org/2000/svg">
<path d="M95 0V95H0V0H95ZM60.3994 36.2344C55.053 36.2344 52.6585 39.2449 51.3174 41.3604V36.9648H41.2441C41.377 39.8771 41.2442 67.9936 41.2441 68L41.25 67.9941H51.3223V50.666C51.3223 49.7425 51.3887 48.8133 51.6543 48.1504C52.3849 46.2975 54.0403 44.377 56.8242 44.377C60.4714 44.377 61.9268 47.2214 61.9268 51.3975V68H72V50.2021C72 40.6712 67.0299 36.2344 60.3994 36.2344ZM25.5918 67.9941H35.6709V36.959H25.5918V67.9941ZM30.7002 22C27.2524 22.0002 25 24.3177 25 27.3604C25 30.4031 27.186 32.7205 30.5674 32.7207H30.6338C34.1483 32.7207 36.335 30.3352 36.335 27.3604C36.2685 24.3119 34.1482 22 30.7002 22Z" fill="white"/>
</svg>
